<?xml version="1.0" encoding="UTF-8" standalone="no"?>
<svg
   width="1600"
   zoomAndPan="magnify"
   viewBox="0 0 1200 300.00001"
   height="400.00003"
   preserveAspectRatio="xMidYMid"
   version="1.0"
   id="svg89"
   sodipodi:docname="FORMULARIOS (1).svg"
   inkscape:version="1.4 (86a8ad7, 2024-10-11)"
   xmlns:inkscape="http://www.inkscape.org/namespaces/inkscape"
   xmlns:sodipodi="http://sodipodi.sourceforge.net/DTD/sodipodi-0.dtd"
   xmlns="http://www.w3.org/2000/svg"
   xmlns:svg="http://www.w3.org/2000/svg">
  <sodipodi:namedview
     id="namedview89"
     pagecolor="#ffffff"
     bordercolor="#000000"
     borderopacity="0.25"
     inkscape:showpageshadow="2"
     inkscape:pageopacity="0.0"
     inkscape:pagecheckerboard="0"
     inkscape:deskcolor="#d1d1d1"
     inkscape:zoom="0.36924232"
     inkscape:cx="773.20497"
     inkscape:cy="-39.269605"
     inkscape:window-width="1920"
     inkscape:window-height="1051"
     inkscape:window-x="-9"
     inkscape:window-y="-9"
     inkscape:window-maximized="1"
     inkscape:current-layer="svg89">
    <inkscape:page
       x="0"
       y="0"
       width="1200"
       height="300"
       id="page2"
       margin="0"
       bleed="0" />
  </sodipodi:namedview>
  <defs
     id="defs4" />
  <path
     d="m 788.9149,97.431695 c 2.85895,0.822827 5.12761,1.957136 7.49839,3.746925 2.185,2.2965 3.57967,4.52326 4.68597,7.49848 0.69739,3.93751 0.64158,7.48453 -0.65538,11.28722 -1.53414,3.02172 -3.30071,4.79755 -5.96448,6.86627 -2.75208,1.52014 -2.75208,1.52014 -5.5645,2.45919 -1.66898,-0.0558 -3.33784,-0.11627 -5.00682,-0.20454 -5.87606,-0.26498 -10.59916,-0.0419 -16.01502,2.54753 -5.51808,3.17512 -11.38022,7.11729 -14.7878,12.62145 -1.32028,3.42615 -1.21793,6.72678 -0.72988,10.33423 2.59404,5.52742 7.44734,9.39985 12.17984,13.11887 3.93289,2.6963 7.91218,5.36005 12.17984,7.49849 2.24534,0.12087 4.79284,-0.39048 7.03818,-0.31145 7.8146,0.40909 8.11676,0.56017 11.54767,2.43363 3.50981,2.80786 5.0718,5.76215 7.00569,9.82054 0.85532,4.04445 0.70656,7.47524 -0.29288,11.4825 -1.98971,3.63999 -4.28158,6.72213 -7.49387,9.36729 -4.14674,1.84092 -7.67512,2.34299 -12.17984,1.87346 -4.14198,-1.38999 -6.88942,-3.13328 -9.98091,-6.25262 -1.86415,-2.32904 -2.29187,-3.46333 -3.0496,-6.51759 l -0.5578,-3.68649 c -0.88792,-4.46747 -2.0548,-7.90757 -5.02074,-11.4267 -4.79284,-5.07182 -10.47373,-10.655 -17.00053,-13.34201 -4.69526,-1.1529 -8.38643,-0.7345 -13.11894,0 -3.9142,0.46023 -7.17302,0.44629 -10.91989,-0.88326 -3.47732,-1.63173 -6.33639,-3.30064 -9.16749,-5.91325 -2.38482,-4.19786 -4.15603,-8.28413 -4.36977,-13.16535 0.32073,-4.421 1.48761,-8.21441 3.62597,-12.09614 1.92461,-2.78927 3.98405,-4.42099 6.77791,-6.35953 3.29606,-1.562 5.84821,-2.11054 9.48821,-2.05011 l 2.72423,0.0325 c 2.70091,0.13947 5.31351,0.47418 7.99121,0.84608 3.68653,0.3533 6.35959,0.11151 9.84143,-1.1715 6.94072,-3.203 13.27234,-7.31717 17.74446,-13.58837 0.9391,-1.85487 1.8363,-3.72833 2.69162,-5.62038 1.64101,-3.37966 3.02639,-6.16893 5.91331,-8.60955 4.20708,-2.710233 8.0331,-3.240191 12.94221,-2.635853"
     style="fill:#34a853;fill-opacity:1;fill-rule:nonzero;stroke:#000000;stroke-width:1.19009;stroke-opacity:0.891847"
     id="path1-7"
     sodipodi:nodetypes="ccccccccccccccccccccccccccccccccccccc" />
  <path
     fill="#ffffff"
     d="m 724.97074,32.520603 c 4.17769,1.986412 7.47471,4.361912 10.7052,7.674308 2.71341,4.279998 3.65548,7.786938 4.06499,12.834876 -0.15864,5.795409 -2.35507,10.623192 -5.16058,15.60971 -1.73051,3.95233 -1.73563,7.100911 -1.3567,11.350181 l 0.51697,2.836266 c 1.1213,7.290338 1.39264,14.304218 -1.22353,21.287366 -1.96091,4.20832 -3.92669,7.98149 -7.54635,10.96108 -3.33272,2.15026 -6.71686,4.20323 -10.1624,6.16403 -4.75107,3.05642 -8.30396,6.62991 -11.25287,11.44235 l -1.2697,2.03761 c -2.84634,5.50357 -2.488,11.60616 -2.36018,17.67803 0.37892,5.43702 1.44381,9.67607 4.40296,14.27349 4.72024,5.54966 10.68472,8.64191 17.04825,11.9799 4.71513,2.64684 7.54635,6.17938 10.49515,10.5976 3.66059,6.22034 4.56672,11.57547 4.6436,18.76852 -0.0262,4.58205 -0.44021,8.83644 -1.22876,13.34683 -0.32764,3.82436 -0.41463,7.53095 0,11.3502 1.69468,3.39942 1.69468,3.39942 4.13162,6.19473 2.46254,3.49157 3.93194,5.75445 4.48973,9.98837 0.12841,4.31584 -0.13805,7.87911 -1.45893,12.00551 -3.31761,4.59742 -7.07543,7.86374 -12.12843,10.44402 -4.70489,0.82938 -8.9491,0.59899 -13.60806,-0.45052 -4.53078,-2.34992 -7.44376,-5.07866 -10.31592,-9.28699 -1.77132,-3.18441 -2.26794,-6.01555 -2.45217,-9.60952 0.14317,-4.13154 0.87031,-7.3057 2.85156,-10.93552 2.1656,-2.80554 4.69978,-4.89946 7.40295,-7.18792 2.95915,-2.55982 5.22198,-4.52576 7.00355,-8.02246 0.74237,-2.48813 1.31064,-5.01721 1.7048,-7.58726 l 0.70655,-3.22024 c 0.72715,-6.70157 0.56327,-12.00038 -1.76121,-18.33334 -2.0529,-4.41311 -4.82259,-7.41322 -8.81582,-10.23924 -4.15709,-2.02736 -7.89455,-2.70315 -12.57374,-2.59053 -6.21536,0.89081 -11.24777,4.3568 -16.137,8.10947 -1.2083,0.96762 -2.40624,1.94546 -3.59919,2.92843 l -1.71503,1.39253 c -4.02917,3.46598 -6.46099,6.81421 -8.73406,11.6369 -0.69632,3.28679 -0.69632,3.28679 -0.90614,6.5787 -0.75773,5.65206 -2.00184,9.63511 -5.47797,14.18133 -3.32785,3.44551 -6.57881,5.64693 -11.16077,7.10091 -5.08382,0.75258 -9.82453,0.72699 -14.79065,-0.68604 -4.54614,-2.00176 -7.7664,-4.92506 -10.81255,-8.82108 -2.62641,-3.95235 -3.23561,-7.35177 -3.60942,-12.03622 0.16388,-5.7391 2.17584,-10.37747 5.02753,-15.28206 3.94716,-3.74756 7.55135,-6.07699 12.83486,-7.54631 4.14686,-0.28669 8.28349,-0.17406 12.43047,0.0972 4.36192,0.22014 7.57694,0.0256 11.54469,-1.88915 8.17603,-4.63837 15.16435,-10.58736 20.27363,-18.5023 3.32773,-6.93706 3.56848,-13.33146 3.5429,-20.91874 l 0.0512,-2.9745 c 0,-6.11282 -0.47604,-11.28876 -3.47101,-16.69507 -3.58371,-5.62645 -8.16068,-8.78525 -13.98163,-11.89286 l -2.85169,-1.45911 -2.81064,-1.54099 c -4.47449,-2.33455 -8.18626,-4.00866 -13.28543,-4.05474 -2.15025,0.11782 -4.20315,0.36862 -6.3227,0.727 -3.77317,0.63994 -6.77838,0.77818 -10.40815,-0.35325 -3.96776,-1.69459 -6.35353,-4.19297 -9.02587,-7.51561 -1.50522,-2.29869 -2.14002,-4.42336 -2.478,-7.136746 -0.15352,-3.716848 -0.15352,-6.911474 1.18271,-10.418426 1.99149,-3.481341 4.21339,-6.210094 7.54635,-8.467835 3.84482,-1.878899 7.51041,-2.134875 11.7495,-1.950578 4.09057,0.65531 6.37899,2.052962 9.72719,4.530868 3.41995,3.225354 4.48996,6.251046 5.80572,10.638556 1.15701,3.327761 2.15025,5.54455 4.53591,8.150427 2.65711,2.170724 5.36539,4.095704 8.23755,5.974604 l 3.39937,2.2731 c 5.59579,3.61445 10.66926,6.54799 17.23747,8.04805 5.57521,-0.1792 9.73754,-1.29527 14.63689,-3.95745 4.96612,-3.18442 8.13009,-7.57705 11.16088,-12.553317 1.58699,-4.766363 1.43335,-9.471294 1.02895,-14.447565 -1.37205,-3.404533 -2.79016,-4.878981 -5.47797,-7.35177 -2.73387,-2.017116 -2.73387,-2.017116 -5.87214,-3.419897 -4.85864,-2.529081 -8.32453,-6.363688 -11.35021,-10.899662 -1.69445,-5.083783 -1.51023,-10.172672 -1.03419,-15.476598 1.34135,-4.679332 3.55813,-7.658944 6.90644,-11.160767 6.50691,-4.300467 13.26995,-6.80909 20.9597,-4.320948"
     fill-opacity="1"
     fill-rule="nonzero"
     id="path88-3"
     style="fill:#fbbc05;fill-opacity:1;stroke:#000000;stroke-width:1.31062;stroke-opacity:0.891847" />
  <path
     fill="#ffffff"
     d="m 347.6896,117.30041 h 12.22016 c 2.44403,1.8567 3.10713,2.46297 4.44092,4.96384 l 0.98519,1.56873 c 0.68206,1.08749 1.34896,2.18257 1.99691,3.28901 1.54978,2.59182 3.30418,5.03585 5.03585,7.5064 0.6934,1.01172 1.38305,2.02342 2.07267,3.03514 3.06546,4.48641 6.19532,8.93113 9.32142,13.37586 l 1.29969,1.85292 1.14814,1.63313 c 1.44367,2.08405 2.84188,4.19842 4.25147,6.309 l 0.76163,-43.53403 h 13.74719 v 68.73975 h -12.98177 c -2.85706,-2.94043 -4.22116,-4.91081 -6.11198,-8.40065 -1.22769,-1.87943 -2.52739,-3.70205 -3.81572,-5.5398 -0.71236,-1.03446 -1.42475,-2.07268 -2.13331,-3.11472 -1.84156,-2.69033 -3.70205,-5.36928 -5.57012,-8.04067 l -1.64071,-2.35307 c -1.06856,-1.52705 -2.13711,-3.05032 -3.20567,-4.57735 l -1.50431,-2.15226 -1.33,-1.89838 c -1.81502,-2.69413 -3.51637,-5.46403 -5.24045,-8.22257 l -0.76162,44.29947 H 347.6896 Z m 312.5213,-0.25766 c 4.17193,1.33757 7.57083,3.2928 10.75748,6.30522 2.30382,2.77746 3.7551,5.91871 5.13817,9.23046 -2.26212,1.5081 -3.89526,2.07649 -6.49087,2.76611 -1.09886,0.29935 -1.09886,0.29935 -2.2205,0.60249 -1.98169,0.44713 -1.98169,0.44713 -4.27038,0.44713 l -1.38687,-2.14468 c -1.50055,-2.47815 -1.50055,-2.47815 -3.62627,-3.86878 -3.72096,-1.21633 -7.14643,-1.28453 -11.02657,-0.86015 -2.36445,0.68965 -2.36445,0.68965 -3.8195,2.29246 -1.20877,2.15606 -1.20877,2.15606 -1.52703,4.58115 0.14782,2.09163 0.14782,2.09163 1.52703,3.81949 5.16853,2.90253 10.56046,4.59251 16.21023,6.31659 4.89178,1.55357 9.45782,3.41407 13.21292,7.02516 2.81154,3.19049 3.91796,5.98692 4.75539,10.09821 0.3789,3.81571 -0.0912,7.30554 -1.33758,10.92802 -1.87188,3.56942 -4.44091,6.22186 -7.63901,8.64315 -5.20259,3.1943 -11.06061,4.24769 -17.10818,4.41441 -5.57392,-0.26524 -10.76893,-1.27696 -15.73278,-3.8915 -3.66033,-2.53497 -6.66898,-5.30488 -8.78338,-9.26078 -1.20112,-2.59561 -1.40574,-4.5281 -1.90971,-7.54051 l 12.22012,-2.29245 1.67106,2.91388 c 1.28452,2.04995 2.15232,3.19808 4.10752,4.67587 4.11129,1.79227 8.11267,1.9628 12.55358,1.57631 2.05376,-0.54565 3.46331,-1.23148 5.34653,-2.29246 1.72026,-2.20153 1.72026,-2.20153 1.81504,-4.91459 l -0.28801,-2.72065 c -1.19741,-1.68618 -1.19741,-1.68618 -3.05405,-3.05787 -2.46679,-1.05719 -2.46679,-1.05719 -5.25185,-1.8605 l -3.07685,-0.97761 -1.57242,-0.4926 c -13.03483,-4.07716 -13.03483,-4.07716 -17.11965,-7.5291 -2.46679,-2.7055 -3.98624,-5.50571 -5.05853,-8.99555 -0.63663,-3.95213 -0.52673,-7.44956 0.65167,-11.28421 1.45127,-3.29283 3.15262,-5.80506 5.93767,-8.09752 8.08243,-5.28972 17.00217,-6.50225 26.39558,-4.5546 m -363.69056,0.68962 c 3.95591,1.70515 7.16915,3.88013 9.92768,7.20705 1.47779,2.47056 2.70928,4.98279 3.81951,7.63901 -2.53118,1.68241 -4.44472,2.12195 -7.40029,2.76611 -1.35274,0.29935 -1.35274,0.29935 -2.72822,0.60249 l -2.09163,0.44713 -0.87151,-1.11403 c -0.3903,-0.48501 -0.78059,-0.96626 -1.18224,-1.46263 -0.38271,-0.47744 -0.76163,-0.95488 -1.15572,-1.45127 -1.65965,-1.59144 -2.99344,-2.17877 -5.19496,-2.84568 -4.01276,-0.50018 -7.43441,-0.37512 -11.21602,1.09887 -1.84154,1.73923 -1.84154,1.73923 -2.19774,3.5808 -0.20839,2.67515 -0.20839,2.67515 0.43197,5.25181 4.44095,3.92182 10.45439,5.06616 16.01692,6.73717 5.67622,1.78852 10.78405,3.98246 15.02415,8.28319 2.09164,2.45918 2.95559,5.00172 3.66037,8.13161 0.60247,4.25147 0.41682,7.93835 -1.09508,11.97763 -1.88702,3.56563 -4.43714,6.21807 -7.63901,8.64315 -5.20634,3.1943 -11.06445,4.24769 -17.1082,4.41441 -5.5777,-0.26524 -10.7689,-1.27696 -15.73273,-3.8915 -3.66037,-2.53497 -6.66899,-5.30488 -8.78336,-9.26078 -1.20497,-2.59561 -1.40959,-4.5281 -1.90975,-7.54051 l 12.22015,-2.29245 1.48157,2.86462 c 1.14813,1.82261 2.09542,3.07304 3.85361,4.33106 3.68309,1.80365 7.09716,2.39476 11.18569,2.22425 2.73959,-0.3865 4.72135,-1.2277 7.15401,-2.54633 l 1.53083,-1.52705 c 0.35239,-3.09957 0.35239,-3.09957 0,-6.10819 -1.1898,-1.71271 -1.1898,-1.71271 -3.05787,-3.05787 -2.46298,-1.05719 -2.46298,-1.05719 -5.24804,-1.8605 -1.02687,-0.32207 -2.04995,-0.64795 -3.07304,-0.97382 l -1.5763,-0.49259 c -13.27355,-4.17189 -13.27355,-4.17189 -17.59702,-8.12782 -2.17499,-2.85704 -3.91802,-5.60422 -4.58112,-9.16606 -0.38651,-4.37273 -0.22737,-8.32106 1.56113,-12.36791 1.25802,-2.38341 2.4592,-4.27043 4.54703,-5.96042 9.03344,-5.28591 18.81336,-7.50639 29.02523,-4.15295 m 281.66589,0.30693 c 3.60352,1.68619 6.52119,3.75508 8.99553,6.89254 1.94765,2.94799 2.66759,4.81985 3.38376,8.40822 l -12.22015,3.0541 -3.20566,-4.02793 c -1.66346,-1.59144 -2.99347,-2.18257 -5.19499,-2.84568 -2.82294,-0.3107 -5.57769,-0.28418 -8.40064,0 -2.34929,0.89426 -2.34929,0.89426 -3.81949,2.29246 -0.93215,1.62936 -0.93215,1.62936 -1.00415,4.10371 l 0.23872,2.76989 c 1.1936,1.6862 1.1936,1.6862 3.05787,3.05408 2.46299,1.06098 2.46299,1.06098 5.24804,1.8643 1.02688,0.32587 2.05374,0.65552 3.08062,0.9814 2.00069,0.629 4.00517,1.24285 6.01344,1.84913 5.20637,1.68997 9.39342,3.45952 13.32282,7.34345 2.6259,3.30796 4.00138,6.79781 4.66827,10.95075 0.20841,4.03171 -0.78815,7.79059 -2.54632,11.38275 -2.37584,3.66794 -5.13816,6.21806 -8.97661,8.3059 -6.53636,2.91768 -12.84916,3.52017 -19.93873,2.79643 -5.1192,-0.8753 -10.02242,-2.87978 -14.16022,-6.05514 -2.53497,-2.54633 -4.38789,-5.58526 -5.80505,-8.8667 l -0.76541,-5.34656 12.22014,-2.29245 3.0541,5.34655 c 2.49707,1.97417 4.53566,3.21324 7.63901,3.81951 3.7172,0.31829 6.80919,0.32587 10.31039,-1.04961 1.94386,-1.17087 1.94386,-1.17087 3.4368,-2.7699 0.32965,-1.57631 0.32965,-1.57631 0.33345,-3.34209 l 0.0909,-1.78469 c -0.3107,-1.86428 -0.3107,-1.86428 -1.81881,-3.3307 -3.47089,-2.1068 -7.11611,-3.02757 -11.01518,-4.09613 -6.19911,-1.69755 -12.38308,-3.41405 -17.25978,-7.81331 -2.56149,-2.65622 -4.14158,-5.52842 -5.14951,-9.07132 -0.59112,-3.5391 -0.38651,-6.79403 0.45091,-10.27629 1.67862,-4.03171 4.3841,-7.02895 7.76786,-9.73822 7.73373,-5.28973 19.30593,-5.60423 27.96803,-2.50845 m -141.13608,-0.73889 c 1.0837,-0.0606 2.16363,-0.0871 3.24733,-0.072 l 1.97797,0.007 2.07649,0.0189 2.08783,0.007 c 1.70893,0.0119 3.41406,0.0227 5.12299,0.0378 2.39477,4.57357 4.28558,9.18123 6.03619,14.03518 l 0.83741,2.29245 c 0.89424,2.44783 1.7847,4.89943 2.67136,7.35104 1.23151,3.37239 2.46299,6.74475 3.69449,10.11715 l 0.92076,2.52739 c 3.02378,8.28694 6.12334,16.5436 9.24564,24.79268 l 1.03823,2.75474 0.89804,2.36825 c 0.62522,1.73546 0.62522,1.73546 0.62522,2.50086 h -13.74719 l -2.29247,-5.96797 c -0.23872,-0.61763 -0.47744,-1.23529 -0.72374,-1.86807 l -0.56459,-1.48916 -0.58353,-1.51189 c -0.4206,-1.38304 -0.4206,-1.38304 -0.4206,-3.67551 h -29.02142 l -1.52705,6.87358 c -0.49639,1.43611 -1.03824,2.84948 -1.62177,4.25149 l -1.43232,3.38753 H 411.8444 c 3.60351,-10.96591 7.38893,-21.86363 11.36378,-32.69694 l 1.6142,-4.42198 c 2.88737,-7.92699 5.80125,-15.83883 8.74166,-23.74309 0.27663,-0.73889 0.54944,-1.47399 0.83364,-2.23562 l 0.73889,-1.97417 0.62521,-1.66725 c 0.52291,-1.23528 0.52291,-1.23528 1.28833,-2.00069 m 6.8736,15.27802 c -1.18603,3.30039 -2.36826,6.60079 -3.5467,9.90495 -0.40164,1.1216 -0.8033,2.24321 -1.20873,3.36481 -0.57976,1.61799 -1.15572,3.23597 -1.73168,4.85396 l -0.54564,1.50809 c -0.93971,2.64108 -1.58009,5.09267 -2.13332,7.86257 h 19.85917 c -1.91734,-6.40373 -1.91734,-6.40373 -4.02033,-12.72788 l -0.917,-2.64108 -0.93592,-2.67516 c -0.31451,-0.9132 -0.63279,-1.82638 -0.96246,-2.76611 -0.77299,-2.22805 -1.54977,-4.4561 -2.33035,-6.68415 z m 41.24158,-15.27802 c 33.26911,0 33.26911,0 41.15064,4.34621 3.27006,2.39856 5.69894,5.13055 7.72994,8.63936 1.97418,4.66071 1.94007,9.52603 1.53084,14.51261 -0.67069,3.64141 -1.94765,6.70687 -4.15295,9.68897 -3.72478,3.95969 -8.81367,6.18015 -13.94424,7.73374 -6.01344,1.28452 -11.51915,0.90561 -17.80163,0.90561 l -0.76161,22.91324 h -13.75099 z m 13.75099,12.98557 v 19.85537 l 7.72994,0.19325 2.41371,0.0833 c 3.43302,0.0418 5.49813,-0.072 8.60906,-1.67103 1.97796,-1.618 1.97796,-1.618 3.39511,-3.94835 0.68585,-2.22426 0.85636,-4.00138 0.48501,-6.30143 -0.71616,-2.70169 -0.71616,-2.70169 -2.01206,-5.15708 -2.4516,-1.8605 -4.16052,-2.90253 -7.21462,-3.29282 -2.04617,-0.0606 -4.05822,-0.0303 -6.10439,0.0455 z m 103.86939,-12.98554 h 13.7472 v 68.73975 h -14.50881 c -0.0189,-8.85156 -0.0342,-17.69933 -0.0418,-26.5471 -0.005,-4.11128 -0.007,-8.21874 -0.0189,-12.33002 -0.007,-3.95969 -0.0119,-7.9232 -0.0151,-11.8829 0,-1.51568 -0.005,-3.03137 -0.007,-4.54703 -0.005,-2.11438 -0.007,-4.22875 -0.005,-6.34311 l -0.007,-1.91734 c 0,-1.47021 0.0418,-2.94042 0.0947,-4.40683 z m -281.82502,-4.2e-4 h 13.74719 v 68.73975 h -13.74719 z"
     fill-opacity="1"
     fill-rule="nonzero"
     id="path89-3"
     sodipodi:nodetypes="cccccccccccccccccccccccccccccccccccccccccccccccccccccccccccccccccccccccccccccccccccccccccccccccccccccccccccccccccccccccccccccccccccccccccccccccccscccccccccccccccccccccccccccccccccccccccccccccccccccccccccccccccccccccccccccc"
     style="fill:#4285f4;fill-opacity:1;stroke:#000000;stroke-width:0.970034;stroke-opacity:0.891847" />
  <path
     d="m 607.63218,201.36835 c 2.21924,0.57733 4.00153,1.45656 5.75737,2.93959 1.77437,1.87499 2.88926,3.87445 3.60166,6.35588 0.66468,3.67317 0.67533,7.40989 -0.45022,10.98773 -0.28604,0.71768 -0.58528,1.43007 -0.90305,2.13452 l -0.63294,1.46979 c -1.42745,1.76904 -3.21238,2.8575 -5.23832,3.86914 -2.59266,0.83686 -5.31508,0.81568 -8.00578,0.53231 -1.7399,-0.60646 -3.47983,-1.34268 -4.80395,-2.66682 l -0.53497,12.27743 h -5.3363 v -37.36727 h 4.26905 l 1.06725,2.66948 1.16791,-1.00106 c 3.17001,-2.39669 6.1731,-2.6218 10.04229,-2.20072 m -7.34102,5.43693 c -1.35592,1.09374 -2.33585,2.20866 -3.33421,3.63609 -0.87396,2.61914 -0.72827,5.27273 -0.53497,8.0084 0.34425,1.52806 0.76799,2.35697 1.60221,3.73673 1.43274,1.35856 2.39673,2.04447 4.26905,2.66683 2.2431,0.21715 3.60696,0.0556 5.70701,-0.79979 1.40364,-0.90306 2.23517,-1.82203 3.06939,-3.27064 0.92162,-2.1345 1.11226,-4.08364 1.00108,-6.39559 -0.25424,-1.9306 -0.78392,-3.33684 -1.76908,-5.0132 -1.27645,-1.30825 -2.62709,-2.38081 -4.27169,-3.20178 -2.9555,-0.19597 -2.9555,-0.19597 -5.73879,0.63295 m -43.36831,-15.58014 h 5.3363 l 0.0237,2.44702 c 0.0319,3.00315 0.0715,6.0063 0.11651,9.0068 0.0183,1.30031 0.0319,2.59796 0.0447,3.89562 0.0183,1.86969 0.0448,3.73674 0.0768,5.60641 l 0.0107,1.75317 c 0.0448,2.37551 0.13776,4.19488 1.00108,6.42738 0.84481,1.35593 0.84481,1.35593 2.1292,2.55825 2.48676,1.11492 4.53122,1.16258 7.23513,1.0699 1.73992,-0.13506 1.73992,-0.13506 3.57515,-1.0699 1.49104,-1.49099 2.10541,-2.48939 2.86812,-4.47031 0.24894,-2.08949 0.26216,-4.1684 0.2728,-6.26849 l 0.0292,-1.81672 c 0.0291,-1.90941 0.0475,-3.81882 0.0664,-5.72822 0.0156,-1.29768 0.0345,-2.59267 0.0556,-3.89033 0.0448,-3.17265 0.082,-6.34794 0.11116,-9.52058 h 5.33628 c 0.04,3.86385 0.0689,7.73033 0.0901,11.59418 0.008,1.31354 0.0183,2.62709 0.0319,3.94064 0.0183,1.89353 0.0292,3.78705 0.0346,5.68057 0.008,0.58262 0.0156,1.16525 0.0264,1.7664 0,3.4666 -0.36542,6.39296 -1.78229,9.57884 -1.19436,2.01798 -2.54499,2.98726 -4.53915,4.13661 -3.08262,1.66842 -5.72822,1.92001 -9.21335,1.88558 -3.14621,-0.27277 -5.8474,-1.32678 -8.60432,-2.83366 -1.2341,-0.86863 -2.0709,-1.88558 -2.79124,-3.20177 -1.60751,-3.71555 -1.82738,-6.95174 -1.75056,-10.96654 l 0.008,-1.88028 c 0.0129,-1.96237 0.04,-3.92476 0.0664,-5.88978 0.0107,-1.33739 0.0211,-2.67742 0.0292,-4.01479 0.0237,-3.26534 0.0611,-6.53067 0.10592,-9.796 m -101.68876,0.0344 c 2.6933,0.97986 4.7669,2.64562 6.67103,4.76955 0.65412,1.0858 0.65412,1.0858 1.0699,2.13452 v 1.6022 c -1.80084,0.79979 -2.77806,1.06726 -4.80664,1.06726 -0.72563,-1.05665 -1.43802,-2.12391 -2.13452,-3.20176 -1.13346,-1.08051 -1.13346,-1.08051 -2.66946,-1.60222 -2.87338,-0.33633 -5.3098,-0.0371 -8.00576,1.06726 -0.14565,0.83156 -0.28072,1.66577 -0.39989,2.50262 l -0.22511,1.40625 c -0.002,1.48038 -0.002,1.48038 0.82097,2.82307 1.99416,1.81142 4.12867,2.39669 6.67631,3.17792 4.036,1.26589 7.06563,2.3914 10.07673,5.47136 1.32678,1.88028 1.88292,3.16735 2.26693,5.43692 0.0344,2.47615 -0.28867,4.32995 -1.43272,6.53862 -1.81408,2.15834 -3.48514,3.73671 -6.10694,4.8384 -3.98832,0.70709 -7.69061,0.7786 -11.57565,-0.4661 -2.33049,-0.96132 -4.081,-2.09478 -5.77324,-3.96183 -1.2341,-1.81407 -1.82997,-3.7632 -2.33315,-5.88183 3.53547,-1.06726 3.53547,-1.06726 5.3363,-1.06726 l 0.33633,0.8607 c 0.90836,2.08154 1.64193,3.28121 3.43482,4.74307 2.13186,1.03018 4.24519,1.09903 6.58627,1.01429 1.35593,-0.20656 2.1769,-0.47933 3.32095,-1.21292 1.28971,-1.01428 1.28971,-1.01428 1.80083,-2.20336 0.14566,-2.4735 0.14566,-2.4735 -0.41578,-4.85961 -0.57732,-1.04606 -0.57732,-1.04606 -1.52541,-1.59161 l -1.09375,-0.45285 -1.28971,-0.5376 c -1.49627,-0.54555 -3.00579,-1.01165 -4.52856,-1.4751 -3.26003,-1.0037 -6.06457,-2.01799 -8.51688,-4.49148 -1.28971,-1.66312 -2.05241,-3.18589 -2.37815,-5.27273 -0.0503,-2.27752 0.26483,-4.18165 1.16789,-6.27378 1.54661,-1.92 3.06406,-3.35538 5.29392,-4.39087 3.58843,-1.31884 6.66572,-1.52805 10.35214,-0.5111 m 48.95085,10.33889 c 1.63398,0.50317 2.78599,1.08844 4.05187,2.25104 1.3056,1.46979 2.15305,2.57678 2.77805,4.45706 0.045,1.536 0.0635,3.05876 0.053,4.59212 l -0.002,1.35857 c -0.002,1.43007 -0.0107,2.86014 -0.0158,4.29022 -0.002,0.97191 -0.006,1.94119 -0.008,2.91046 -0.006,2.37815 -0.0158,4.75631 -0.0265,7.13183 h -4.80398 l -0.5323,-2.66684 -0.74418,0.68061 -0.9931,0.88718 -0.97457,0.88188 c -1.09903,0.80508 -1.82732,1.06991 -3.16205,1.28443 -2.79659,0.18802 -4.96288,0.006 -7.5635,-1.06992 -1.50686,-0.81831 -2.54764,-1.90147 -3.64403,-3.19912 -0.82361,-1.64458 -0.70709,-3.23355 -0.6859,-5.04763 0.15095,-1.35857 0.15095,-1.35857 1.05136,-3.19383 1.25793,-1.393 2.25104,-2.10273 3.90357,-2.96872 4.20282,-1.13876 8.48775,-1.20498 12.8124,-1.06726 -0.0344,-0.768 -0.0821,-1.536 -0.13507,-2.30136 l -0.0741,-1.295 c -0.23834,-1.26853 -0.23834,-1.26853 -1.23675,-2.14777 -1.90411,-1.02752 -3.56459,-0.94279 -5.69116,-0.88981 -1.55189,0.14035 -1.55189,0.14035 -3.04022,1.46184 -0.71768,1.00105 -1.41949,2.0127 -2.10009,3.03758 l -4.80398,-1.6022 c 1.73726,-3.8612 1.73726,-3.8612 3.33418,-5.50314 3.9327,-2.41523 7.68001,-3.17264 12.2536,-2.27222 m -9.85161,16.49085 -0.93219,0.89247 c -0.24365,1.6949 -0.36282,2.66153 0,4.27168 0.96662,1.44861 0.96662,1.44861 2.66682,2.13452 1.66312,0.29926 3.14086,0.28601 4.80398,0 1.4592,-0.56409 2.44172,-1.21026 3.73672,-2.13452 1.12553,-1.6896 1.25,-2.40729 1.40095,-4.36967 l 0.12182,-1.45919 0.0795,-1.11229 c -3.96183,-0.15094 -8.36328,-0.29396 -11.87755,1.777 m 45.50809,-23.12745 h 4.80398 l 0.5323,6.9385 3.16997,-0.0318 c 1.07788,-0.0132 2.15835,-0.006 3.23624,0.0318 l 0.53227,0.53496 v 3.73672 h -7.47078 c 0.0503,2.25104 0.10591,4.50208 0.16684,6.75312 0.0212,0.76536 0.0397,1.5307 0.0582,2.29606 0.0238,1.10169 0.0556,2.20338 0.0874,3.30505 l 0.0503,2.00741 c 0.0503,1.73992 0.0503,1.73992 1.23674,3.25208 1.29503,0.31251 1.29503,0.31251 2.73571,0.36812 l 1.47246,0.10592 1.13076,0.0609 0.53234,4.26903 c -1.42744,0.71504 -2.57415,0.64354 -4.16844,0.66736 l -1.67897,0.0424 c -1.83528,-0.19863 -2.8019,-0.71768 -4.29288,-1.777 -0.93484,-0.79978 -0.93484,-0.79978 -1.60222,-1.59957 -0.64617,-1.94119 -0.5985,-3.71288 -0.58526,-5.72822 l 0.002,-1.21557 c 0.002,-1.27648 0.008,-2.55559 0.0158,-3.83206 0.002,-0.86864 0.006,-1.73463 0.008,-2.60326 0.006,-2.12393 0.0132,-4.24786 0.0265,-6.37177 h -4.80665 v -4.27168 h 4.27168 z m -68.32569,0 h 4.80397 l 0.53232,6.9385 3.16999,-0.0318 c 1.07785,-0.0132 2.15836,-0.006 3.23621,0.0318 l 0.5323,0.53496 v 3.73672 h -7.47082 c 0.0503,2.33579 0.10592,4.67421 0.16685,7.01001 0.0212,0.79712 0.0397,1.59161 0.0582,2.38609 0.0238,1.14407 0.053,2.28547 0.0874,3.42687 l 0.0503,2.08421 0.16948,1.63928 1.06726,1.06726 c 1.30032,0.24629 1.30032,0.24629 2.73568,0.33369 l 1.47245,0.12182 1.13081,0.0795 0.53232,4.26903 c -1.49364,0.74946 -2.76747,0.64617 -4.43588,0.66736 l -1.82732,0.0424 c -1.74256,-0.17478 -1.74256,-0.17478 -3.19912,-0.81831 -1.43537,-1.13612 -2.02594,-1.97032 -2.81248,-3.62815 -0.13506,-1.44596 -0.18804,-2.89457 -0.1589,-4.34584 l 0.008,-1.24469 c 0.0107,-1.30561 0.0265,-2.6112 0.0503,-3.9168 0.008,-0.88718 0.0158,-1.77435 0.0212,-2.66418 0.0186,-2.16894 0.045,-4.34053 0.0795,-6.50947 h -4.80663 v -3.73673 c 1.47509,-0.32044 2.75686,-0.53495 4.27167,-0.53495 z m 45.90533,6.9385 h 5.33892 l 0.53232,2.13452 0.96927,-0.76536 c 1.16525,-0.8342 1.16525,-0.8342 2.76745,-1.36916 1.01165,-0.0371 2.02329,-0.045 3.03758,-0.0318 l 1.60486,0.0132 1.22881,0.0184 v 4.804 l -1.44332,0.14035 c -0.62235,0.0742 -1.24734,0.15096 -1.89352,0.22775 l -1.87498,0.20657 -1.72669,0.49258 c -1.14935,1.19967 -1.9306,2.25898 -2.66946,3.73673 -0.0821,1.31884 -0.13771,2.63768 -0.16949,3.95917 l -0.0318,1.17849 c -0.0344,1.24734 -0.0689,2.49203 -0.0979,3.73673 l -0.0715,2.53176 c -0.0556,2.07095 -0.11127,4.13926 -0.16155,6.21021 h -5.33894 z"
     style="fill:#ea4335;fill-opacity:1;fill-rule:nonzero;stroke:#ffffff;stroke-width:1.21389;stroke-dasharray:none;stroke-opacity:0.891847"
     id="path1-2-5" />
</svg>
